<svg xmlns="http://www.w3.org/2000/svg" width="277" height="268" viewBox="0 0 277 268">
  <defs>
    <style>
      .cls-1 {
        fill: #e8eaeb;
      }

      .cls-1, .cls-2, .cls-5, .cls-8 {
        stroke: #111;
        stroke-linecap: round;
        stroke-linejoin: round;
        stroke-width: 4px;
      }

      .cls-2 {
        fill: #aab7c2;
      }

      .cls-3 {
        fill: #111;
      }

      .cls-3, .cls-7 {
        opacity: 0.25;
      }

      .cls-4 {
        fill: #1976d2;
        stroke: #231f20;
        stroke-miterlimit: 10;
      }

      .cls-5 {
        fill: #4095e8;
      }

      .cls-6 {
        fill: #ffe883;
      }

      .cls-7 {
        fill: #000111;
      }

      .cls-8 {
        fill: none;
      }

      .cls-9 {
        fill: #104a85;
      }

      .cls-10 {
        fill: #9e42b5;
      }
    </style>
  </defs>
  <title>Asset 10</title>
  <g id="Layer_2" data-name="Layer 2">
    <g id="Layer_1-2" data-name="Layer 1">
      <g>
        <path class="cls-1" d="M93.4,147H88.83A11.41,11.41,0,0,0,77.4,158.4v15.2A11.41,11.41,0,0,0,88.83,185H93.4"/>
        <path class="cls-2" d="M67.4,160a7.25,7.25,0,0,1-7-7V121h-13v32a20,20,0,0,0,20,20h10V159.91Z"/>
        <path class="cls-1" d="M54.4,121a17.82,17.82,0,0,1-18-17.6,4.5,4.5,0,0,1,9,0,9,9,0,0,0,18,0,4.5,4.5,0,0,1,9,0A17.82,17.82,0,0,1,54.4,121Z"/>
        <path class="cls-1" d="M138.4,2h0a52,52,0,0,1,52,52V84.92A21.08,21.08,0,0,1,169.32,106H107.48A21.08,21.08,0,0,1,86.4,84.92V54A52,52,0,0,1,138.4,2Z"/>
        <path class="cls-3" d="M138.4,2h0a52.6,52.6,0,0,0-5.5.29A52,52,0,0,1,179.4,54V84.92A21.08,21.08,0,0,1,158.32,106h11A21.08,21.08,0,0,0,190.4,84.92V54A52,52,0,0,0,138.4,2Z"/>
        <path class="cls-4" d="M123.46,225.71h-6a24,24,0,0,1-24-24v-58a18,18,0,0,1,18-18h54a18,18,0,0,1,18,18v58a24,24,0,0,1-24,24h-25"/>
        <path class="cls-5" d="M115.4,59c0,12.15,10.3,22,23,22s23-9.85,23-22Z"/>
        <path class="cls-6" d="M130,61a8.37,8.37,0,0,0,16.72,0Z"/>
        <rect class="cls-2" x="111.4" y="106" width="54" height="10" rx="5" ry="5"/>
        <rect class="cls-2" x="111.4" y="116" width="54" height="10" rx="5" ry="5"/>
        <g>
          <path class="cls-1" d="M86.4,56h0V82h0a7.9,7.9,0,0,1-8-7.8V63.8A7.9,7.9,0,0,1,86.4,56Z"/>
          <path class="cls-1" d="M190.4,82h0V56h0a7.9,7.9,0,0,1,8,7.8V74.2A7.9,7.9,0,0,1,190.4,82Z"/>
        </g>
        <path class="cls-1" d="M188,147h0a11.41,11.41,0,0,1,11.43,11.4v15.2A11.41,11.41,0,0,1,188,185H183.4V147Z"/>
        <path class="cls-2" d="M216.4,131V121h13v32a20,20,0,0,1-20,20h-10V159.91l10,.09a7.25,7.25,0,0,0,7-7V143"/>
        <path class="cls-1" d="M222.4,121a17.82,17.82,0,0,0,18-17.6,4.5,4.5,0,0,0-9,0,9,9,0,0,1-18,0,4.5,4.5,0,0,0-9,0A17.82,17.82,0,0,0,222.4,121Z"/>
        <path class="cls-2" d="M123.4,226h-7a22,22,0,0,0,44,0h-26"/>
        <polygon class="cls-3" points="206.4 159.97 199.4 159.91 199.4 173 206.4 173 206.4 159.97"/>
        <path class="cls-7" d="M190.4,184.74V147.26A11.38,11.38,0,0,0,188,147H183.4v38H188A11.38,11.38,0,0,0,190.4,184.74Z"/>
        <path class="cls-3" d="M165.4,126h-11a18,18,0,0,1,18,18v58a24,24,0,0,1-24,24h11a24,24,0,0,0,24-24V144A18,18,0,0,0,165.4,126Z"/>
        <path class="cls-3" d="M160.4,116h-10a5,5,0,0,1,0,10h10a5,5,0,0,0,0-10Z"/>
        <path class="cls-3" d="M160.4,106h-10a5,5,0,0,1,0,10h10a5,5,0,0,0,0-10Z"/>
        <line class="cls-8" x1="109.4" y1="59" x2="167.4" y2="59"/>
        <line class="cls-8" x1="158.4" y1="233" x2="146.4" y2="233"/>
        <line class="cls-8" x1="154.4" y1="241" x2="142.4" y2="241"/>
        <line class="cls-8" x1="152.4" y1="266" x2="156.4" y2="266"/>
        <line class="cls-8" x1="120.4" y1="266" x2="145.4" y2="266"/>
        <path class="cls-8" d="M148.4,90.93h-16a4,4,0,0,1-4-4"/>
        <path class="cls-8" d="M93.43,154.85v-11a18,18,0,0,1,18-18h54a18,18,0,0,1,18,18v58a24,24,0,0,1-24,24h-25"/>
        <path class="cls-8" d="M123.4,226h-6a24,24,0,0,1-24-24V169"/>
        <path class="cls-9" d="M119.77,145.52a9.3,9.3,0,0,0-4.67,17.37v30.59a9.34,9.34,0,1,0,9.33,0V162.89a9.3,9.3,0,0,0-4.66-17.37Zm0,60.67a4.67,4.67,0,1,1,4.66-4.67A4.67,4.67,0,0,1,119.77,206.19Zm0-46.67a4.67,4.67,0,1,1,4.66-4.67A4.67,4.67,0,0,1,119.77,159.52Zm42,34V164.19c0-14-14-14-14-14H143.1v-9.34l-14,14,14,14v-9.33h4.67c4.11,0,4.66,4.67,4.66,4.67v29.29a9.33,9.33,0,1,0,9.34,0Zm-4.67,12.71a4.67,4.67,0,1,1,4.67-4.67A4.67,4.67,0,0,1,157.1,206.19Z"/>
        <path class="cls-10" d="M231.4,29.41v24a5.12,5.12,0,0,0,5.07,5.33H252.2l10.93,10.13a1.79,1.79,0,0,0,2.67,0,2,2,0,0,0,.53-1.33v-8.8h5.07a5.35,5.35,0,0,0,5.33-5.33L277,29.14a5.25,5.25,0,0,0-5.07-5.07h-35.2A5.35,5.35,0,0,0,231.4,29.41Zm29.33,12a4,4,0,1,1,8,0,4,4,0,0,1-8,0Zm-10.66,0a4,4,0,0,1,8,0,3.93,3.93,0,0,1-4,4h0A4.1,4.1,0,0,1,250.07,41.41Zm-10.67,0a4,4,0,0,1,8,0,3.93,3.93,0,0,1-4,4h0A4.11,4.11,0,0,1,239.4,41.41Zm-2.67,22.66a10.42,10.42,0,0,1-10.4-10.4v-.26H217a4.1,4.1,0,0,0-4,4V76.07a4.1,4.1,0,0,0,4,4h4v6.4a1.49,1.49,0,0,0,1.33,1.6,2,2,0,0,0,1.34-.53l8-7.47,12.26-.26a4.1,4.1,0,0,0,4-4V64.07Z"/>
        <g>
          <path class="cls-10" d="M25.22,54.06a.6.6,0,0,0-.55-.37H21.56a.54.54,0,0,1-.5-.38,9.51,9.51,0,0,0-.79-1.6h0a.47.47,0,0,1-.09-.28A.53.53,0,0,1,20.4,51l1.88-1.89a.59.59,0,0,0,.12-.63A4.27,4.27,0,0,0,19.9,46a.6.6,0,0,0-.65.13l-1.7,1.73h-.06l-.42.43h0a.56.56,0,0,1-.37.15.47.47,0,0,1-.28-.09,9.41,9.41,0,0,0-1-.37.54.54,0,0,1-.48-.49h0V44.54a.58.58,0,0,0-.35-.54,4.39,4.39,0,0,0-1.78-.39,4.2,4.2,0,0,0-1.74.38.58.58,0,0,0-.39.55v2.91h0a.54.54,0,0,1-.43.51,8.86,8.86,0,0,0-1.56.65h0a.53.53,0,0,1-.69,0H8l-2.08-2.1a.58.58,0,0,0-.58-.14,4.3,4.3,0,0,0-2.56,2.5.6.6,0,0,0,.13.65L4.68,51.3h0l.14.14h0l.1.09h0a.53.53,0,0,1,.07.63,10.27,10.27,0,0,0-.48,1.07h0a.53.53,0,0,1-.51.39H.92A.61.61,0,0,0,.38,54a4.31,4.31,0,0,0,0,3.55.6.6,0,0,0,.55.37H3.74a.54.54,0,0,1,.53.54h0A8.89,8.89,0,0,0,4.82,60h0a.52.52,0,0,1-.13.62h0L2.48,62.87a.57.57,0,0,0-.13.63A4.27,4.27,0,0,0,4.85,66h.22a.63.63,0,0,0,.41-.17l1.78-1.79h.06l.15-.18h0a.53.53,0,0,1,.69,0,8.43,8.43,0,0,0,2.07.95.53.53,0,0,1,.43.52h0v3a.58.58,0,0,0,.35.53,4.29,4.29,0,0,0,3.53,0,.59.59,0,0,0,.37-.54v-3h0a.55.55,0,0,1,.47-.52A8.25,8.25,0,0,0,17,64.15h0a.53.53,0,0,1,.64.12l1.91,1.91h0l.15.15a.58.58,0,0,0,.41.17.81.81,0,0,0,.22,0,4.26,4.26,0,0,0,2.5-2.5.58.58,0,0,0-.12-.65l-1.73-1.73v-.06l-.23-.23h0a.52.52,0,0,1-.13-.72h0a8.91,8.91,0,0,0,.81-2.14.52.52,0,0,1,.52-.45h2.77a.62.62,0,0,0,.54-.36,4.29,4.29,0,0,0,0-3.54M12.8,60.48a4.11,4.11,0,1,1,4.12-4.09v0a4.1,4.1,0,0,1-4.12,4.07"/>
          <path class="cls-10" d="M64,75.61c-3.6,7.56-10.27,12.8-19.2,12.8s-15.6-5.24-19.2-12.8c3.6-7.57,10.27-12.8,19.2-12.8S60.4,68,64,75.61Zm-9.6,0a9.6,9.6,0,1,0-9.6,9.6A9.6,9.6,0,0,0,54.4,75.61Zm-9.6-6.4a6.19,6.19,0,0,0-1.86.3,3.2,3.2,0,1,1-4.24,4.24,6.52,6.52,0,0,0-.3,1.86,6.4,6.4,0,1,0,6.4-6.4Z"/>
          <path class="cls-10" d="M44.8,24.41a12.8,12.8,0,1,0,12.8,12.8A12.8,12.8,0,0,0,44.8,24.41Zm6.79,11.1-8,8a2.13,2.13,0,0,1-3,0h0l-3.74-3.73a2.14,2.14,0,1,1,3-3h0L42.13,39l6.5-6.5a2.14,2.14,0,0,1,3,3Z"/>
        </g>
      </g>
    </g>
  </g>
</svg>
